<svg xmlns="http://www.w3.org/2000/svg" xmlns:xlink="http://www.w3.org/1999/xlink" version="1.1" id="Layer_1" x="0px" y="0px" viewBox="0 0 341 227.7" style="enable-background:new 0 0 341 227.7;" xml:space="preserve">
<style type="text/css">
	.st0{fill:#B9A773;}
	.st1{fill:#FFFFFF;}
	.st2{fill-rule:evenodd;clip-rule:evenodd;}
</style>
<path class="st0" d="M157,152.3c-0.8-0.2-1.5-0.7-2.4-0.4l0.8,0.1c-0.6-0.1-1.1,0.2-1.3,0.6c-0.2,0.5,0.4,0.9,0.6,1.5  c0,0.1,0.3,0.2,0.4,0.1c0.6-0.5,1.1-1.2,1.9-1.2C156.8,152.8,157.3,152.4,157,152.3z M171.4,76.9C171.4,76.8,171.5,76.8,171.4,76.9  c0.2-0.1,0.3-0.3,0.3-0.4L171.4,76.9z M194.4,71.9c0,0-0.1-0.1-0.1-0.1C194.3,71.9,194.4,71.9,194.4,71.9z M167.6,183.3  c-27.8,0-51.8-16.8-62.4-40.7h-1c10.7,24.5,35.1,41.6,63.4,41.6c28.3,0,52.7-17.2,63.4-41.6h-1C219.4,166.5,195.4,183.3,167.6,183.3  z M187.5,77.7c0-0.2-0.2-0.4-0.3-0.6c-0.1,0.1-0.3,0.1-0.3,0c-0.2-0.5-0.6-0.7-1.2-0.7c0,0,0.1-0.1,0.1-0.1c-1.5,0.1-1,1.7-0.4,2.5  c0.2,0.3,0.8,0.1,0.9,0C186.6,78.4,187.5,78.4,187.5,77.7z M224.5,127.8c1.1,1,2.5,1.3,3.8,1.5c0.5,0.1,1.6-0.6,2-1.3  c0.2-0.3,0.3-0.9,0.8-1c0.1,0,0.1,0,0.2-0.1c0.1-0.7,0.2-1.5,0.4-2.2H223v2.9C223.6,127.5,224.1,127.4,224.5,127.8z M158,113.8  l-6.7,3.4c-0.4-2.1-0.6-4.2-0.9-6.4c-0.4,0-0.7,0-1.1,0c0,0-0.1,0-0.2,0c0.1,1.1,0.3,2.1,0.4,3.2c-0.3-0.1-0.6-0.3-0.7-0.2  c-0.8,0.6-1.2,1.7-1.4,2.6c-0.1,0.4-0.1,1.6,0.6,1.3c0.9-0.3,0.7-1.5,1-2.3c0.1-0.2,0.4-0.2,0.6-0.4c0.1,0.9,0.3,1.8,0.4,2.8  l-6.2,3.1v1.9c0.3-0.2,0.5-0.4,0.5-0.8l5.9-3c0.7,4.1,1.7,8,2.7,11.8c0.4-0.1,0.8-0.2,1.2-0.4c-1-3.8-2-7.9-2.7-12l7.3-3.7  C158.6,114.4,158.3,114.1,158,113.8z M167.6,221.6c-49.2,0-90.8-33.6-102.9-79h-6.3c12.3,48.9,56.6,85.2,109.3,85.2  c52.6,0,97-36.3,109.3-85.2h-6.3C258.4,188,216.8,221.6,167.6,221.6z M214.9,133.6v-3.2c-0.4-1.1-0.8-2-1.2-3v3.1  C214.1,131.5,214.5,132.6,214.9,133.6z M145.5,117.8c0,0.1-0.1,0.1-0.2,0.2c0.1-0.1,0.3-0.1,0.4-0.3c0.2-0.3,0.6-0.5,0.7-0.9  c0.1-0.3,0.6-0.4,0.6-0.6c-0.2-0.8,0.4-1.5,0.5-2.1c0.1-0.5-0.2-1.1,0-1.6c0.1-0.2,0.4-0.4,0.4-0.7c0-0.3,0-0.8-0.2-1.1h-1  c-0.6,0.3-1.2,0.7-1.5,1.3c-0.1,0.2,0,0.4-0.3,0.5c-0.3,0.1-0.8,0-0.8-0.5c0-0.6,0.3-1,0.6-1.4H144v8.3c0.2-0.2,0.3-0.4,0.4-0.6  C144.6,118.1,145.1,118,145.5,117.8z M67.7,142.5c12.1,43.8,52.3,76.1,99.9,76.1c47.6,0,87.9-32.3,99.9-76.1h-1.1  c-12.1,43.3-51.8,75.1-98.9,75.1c-47.1,0-86.8-31.8-98.9-75.1H67.7z M56,99.8h6.2c3.5-24.5,15.4-46.4,32.7-62.5  c0.7,0.7,1.3,1.4,2,2.1C80.1,55,68.6,76.1,65.1,99.8h1C69.6,76.4,81,55.6,97.5,40.1c6.3,6.6,12.7,13.5,14.9,15.9  c-2.3,2.4-3.3,4.3-3.3,5.8c0,0.8,0.3,1.5,0.9,2.1c0.4,0.4,2.5,2.3,5.9,5.3c-7.6,8.6-13.2,19.1-15.8,30.7h0.9  c2.6-11.4,8-21.6,15.5-30.1c0.6,0.6,1.3,1.2,2,1.8c-7.1,7.9-12.2,17.6-14.8,28.3h1.4c2.5-10.3,7.5-19.7,14.4-27.4  c4.6,4.1,10.3,9.3,16.5,14.9c-4.6,6.2-8.2,13.1-10.6,20.7c-2.5,7.6-3.6,15.4-3.5,23.2h13.9v-10.1c-0.2,0.1-0.3,0.2-0.5,0.2  c-0.7-0.4-0.4-1.5-0.9-2c-0.1-0.1-0.1,0-0.2,0c0-1.1,0-2.3,0-3.4c0.2,0.5,0.3,1,0.6,1.4c0.1,0.1,0.1,0.3,0.2,0.2  c0.3,0,0.5-0.1,0.8-0.2v-12.5c-0.1,0-0.1-0.1-0.2-0.1c-0.1-0.1-0.1-0.2-0.2-0.3c0.1-0.4,0.1-0.8,0.2-1.2c0,0,0,0,0,0  c0,0,0-0.1,0-0.2c0.3-1.3,0.6-2.5,0.9-3.7c0,0,0,0,0,0c0.2-0.3,0.2-0.8,0.5-0.9c0.4-0.2,0.9-0.5,0.9-0.8c0-0.4,0-0.8,0.5-1  c-0.1-0.1,0.2-0.2,0-0.3c0.5-0.4,0.9,0.5,1.3,0.6c0.2,0,0.9-0.1,0.7-0.5c-0.1-0.1-0.4-0.3-0.2-0.4c0.4-0.3,1.6,0.2,1.5-0.7  c0-0.2-0.2-0.3-0.2-0.5c-0.1-0.2,0.2-0.5,0.1-0.6c0,0,0-0.1-0.1-0.1l1.2-0.6c2.9,2.6,5.8,5.2,8.7,7.8c-0.1,0.1-0.1,0.3-0.1,0.5  c0.1,0.3,0,0.6-0.1,0.7c-0.4,0.2-0.7-0.5-0.8-0.8c-0.1-0.5-0.1-1.1-0.4-1.6c0,0,0,0,0,0c-0.9-0.8-1.8-1.6-2.6-2.4  c0,0.1,0,0.3-0.1,0.4c-0.2,0.4-0.6,0.7-1,0.7c-0.3,0-0.5-0.3-0.7-0.6c-0.2-0.3-0.1-0.6-0.1-1c0-0.1,0.1-0.3,0.2-0.3  c-0.2-0.4-0.5-1-1-0.8c-0.6,0.2-1.2,0.5-1.8,0.5c-0.1,0-0.3-0.4-0.4-0.3c-0.5,0.6-0.3,1.5-0.7,2.2c-0.1,0.2,0.1,0.3,0,0.5  c-0.2,0.5-0.6,0.7-1,1c-0.1,0.1-0.2,0.3-0.2,0.4c0,0.5,0.1,1.1,0.3,1.6c0.2,0.4-0.3,0.8-0.2,1.2c0,0,0,0,0,0.1h9.1  c1,0,1.9,0.1,2.8,0.2c-0.2-0.4-0.2-0.8-0.3-1.2c-0.3-0.2-0.5-0.5-0.8-0.7c0.7,0.7,1.5,1.3,2.2,2l0.2,0.1l0.2,0  c1.4-0.1,2.8-0.7,3.9-1.6c1.3-1.1,2.2-2.6,2.5-4.3l0-0.2l-0.1-0.2c-2.9-3.7-6.3-7.9-9.8-12.3c0.3-1.6,0.7-3.2,1.2-4.6  c0.1-0.2,0.1-0.4,0.2-0.6c0.5,0.4,1.2,0.7,1.8,0.8c-0.3,0.7-0.1,1.6-0.6,2.2c0.9,0.2,0.8,1.3,1.3,1.9c-0.6,0.4-1.1,0.9-1.3,1.6  c0,0.1,0.1,0.3,0.2,0.4l-1,0.5c0.3,0.3,0.5,0.7,0.8,1l1.7-0.9c0.4,0.4,0.5,1,0.8,1.4c-0.5,0.1-0.6,0.6-1.1,0.8  c0.9,0.2,1.5,0.9,2.3,1c0.8,0.1,1.7,0.1,2.4-0.2c0.2-0.1,0.4-0.2,0.6-0.3c1.4,6.3,3.3,13.3,5.4,20l-0.2,0.1c2.2,2.9,3.4,6.4,3.6,9.9  c3,8.4,5.8,15.4,7.3,18.6l-16,8.2c-1.2-2.5-2.5-5.5-3.6-8.8c-0.4,0.1-0.8,0.2-1.2,0.3c1.2,3.4,2.4,6.5,3.7,9.1l-8.3,4.2  c-0.1,0-0.2,0-0.3,0c-0.2,0-0.6,0.1-0.7-0.2l-2.3,1.7c0,0.1,0.1,0.1,0.2,0.2l-3.4,1.8l-0.3-0.5c0,0-0.1-0.1-0.1-0.1  c0.1,0.2,0.1,0.5,0.1,0.8l-1,0.5c-0.6-1.1-1.1-2.3-1.6-3.4c0.5,0.1,0.9,0.1,1.3,0.3c0.6,0.2,0.9,1,1.5,1c1,0,1.9-0.8,2.7-1.3  c0.2-0.1-0.2-0.8-0.3-0.8c-1.1,0.1-2.2,0.5-3.2,0.1c-1-0.4-1.7-1-2.9-1.2c-0.8-1.9-1.5-3.8-2.1-5.8c0,0,0.1,0.1,0.1,0.1  c0.2,0.2,0.3,0.4,0.5,0.6c0.2,0.2,0.4-0.1,0.7-0.1c-0.1-0.2,0.1-0.3,0.1-0.4c-0.3-0.7,0.1-1.6-0.5-2c-0.4-0.4-0.5-1-0.5-1.5  c0-0.4,0-0.9-0.3-1.1c-0.2-0.1-0.5-0.2-0.7-0.4c-0.1-0.2-0.1-0.4-0.1-0.7h-15.3c1,8.3,3.5,16.4,7.4,24c1.2,2.3,2.5,4.5,3.9,6.7  c-10.4-6.5-18.8-15.9-24.1-27h-1.5c10.4,22.4,33.2,38.1,59.5,38.1c26.3,0,49.1-15.6,59.5-38.1h-1.5c-1,2.1-2.2,4.2-3.4,6.2l-0.5,0.3  c-1.2-3.6-2.4-7-3.6-10.2h-1.3c1.2,3.4,2.5,7,3.8,10.7l-12.8,6.5l-8.5-16.8c-0.5,0-0.9,0-1.4-0.1l8.8,17.5l-12.8,6.5  c0,0-0.1-0.1-0.1-0.1c-0.1-0.1-0.4-0.2-0.5-0.2c-7.2-9.8-13.2-19.4-15.4-23.8l9.2-4.7c-0.3-0.3-0.6-0.6-0.9-0.9l-8.8,4.5  c-2.3-4.8-6.5-15.6-10.2-27.5l12.9-6.6l3.9,7.5c0.3-0.4,0.5-0.9,0.9-1.3c-1-1.9-2.2-4.3-3.6-6.9l12.1-6.2c1.4,1.9,2.9,3.9,4.2,5.8  c0.4-0.1,0.9-0.1,1.4-0.2c-1.4-2-2.9-4.1-4.5-6.2l8.2-4.2c0.5,0.3,0.9,0.7,1.1,1.3c0.5-0.3,1,0.3,1.4-0.1c0.2-0.2,0.2-0.6,0.4-0.6  c0.8,0,1.5-0.7,2.2-0.7c0.6,0,1.2,0.3,1.8,0.4c-0.5-0.7-0.8-1.4-0.7-2.4c0-0.3,0.3-0.4,0.6-0.5c0.7,0.7,1.3,1.4,2,2.1  c0,0.1-0.1,0.3-0.1,0.4c0,0.6-1.1,0.9-1.7,1.3c0.1,0.1,0.2,0.2,0.1,0.3c-0.3,0.7-0.9,0.9-1.5,1.3c0.4,0.6,1.4,1,1.2,1.6  c-0.9,2.6,0.2,4.8,1.2,7c0.2,0.4,0.2,0.7,0.1,1c0.6,0.2,1.1,0.4,1.7,0.7l1.1,0.5v9.2l-2.6-1.5c-0.1,0.2-0.1,0.5-0.2,0.8  c-0.1,0.2-0.1,0.5,0,0.7c0.6,0.8,1.1,1.4,1,2.5c0.2-0.2,0.4-0.3,0.6-0.1c0.8,0.5,1.7,1,2.4,1.6l-3.9,2c-1.1-2.1-3.4-5.7-6.3-10.1  c-0.5-0.1-1.1-0.2-1.6-0.3c3.1,4.6,5.5,8.5,6.8,10.9l-15.3,7.8l-4.8-9.6c0,0.4-0.1,0.9-0.1,1.3c0,0.5,0,0.9,0.1,1.4l3.2,6.4  c0.7,0.6,1.5,1.1,2.3,1.5l15.1-7.7c0.6,1.2,1.3,2.8,2.2,4.7l1-0.7c-0.8-1.9-1.5-3.5-2.1-4.6l3.7-1.9v-17h8.1c0,0,0,11.3,0,14h9.4  c0-0.7,0.1-1.4,0.1-2.1c0-5.2-0.6-10.3-1.8-15.2h0.7c-6.9-28.8-32.8-50.4-63.8-50.4c-13.4,0-25.8,4-36.2,10.9  c-4.2-5.3-7.2-9-7.6-9.5c-0.5-0.6-1.2-1-2-1.1c-1.4-0.1-3.3,0.8-5.7,2.7c-2.2-2.3-8.6-9.1-14.9-15.8c17.9-15.2,41.1-24.4,66.3-24.4  c51.4,0,94.1,38,101.5,87.4h1c-7.4-50-50.5-88.4-102.5-88.4c-25.5,0-48.9,9.3-67,24.7c0,0,0,0,0,0c-1-1-2-2.1-2.9-3.1  c0.3,0.3,0.6,0.6,0.9,1c18.6-15.9,42.7-25.5,69-25.5c53.6,0,98.1,39.8,105.5,91.3h6.2c-7.4-55-54.7-97.5-111.6-97.5  c-27.9,0-53.5,10.2-73.2,27.1c-2.3-2.5-4.3-4.6-5.6-6l0.4-0.4c1.8-1.7,5.3-6.3,7.3-8.1c2-1.8,5.8-3.9,7.3-5.2  c1.5-1.3-0.2-4.1-2.7-6.8c-2.5-2.6-4-3.4-4.7-2.9c-3.4,2.4-6.5,7.1-6.5,7.1s-2.9,3.2-3.7,3.9c-0.8,0.7-0.9-0.5-6.7,4.9l0,0  c0,0,0,0-0.1,0.1c0,0,0,0-0.1,0.1l0,0c-5.7,5.5-4.5,5.6-5.3,6.4c-0.8,0.8-4.2,3.4-4.2,3.4s-4.8,2.8-7.5,6.1  c-0.5,0.7,0.2,2.2,2.7,4.9c2.5,2.6,5.2,4.5,6.6,3.1c1.4-1.4,3.6-5.2,5.6-7c1.7-1.6,5.6-4.3,7.7-6.1c1.3,1.4,3.3,3.5,5.6,5.9  C72.2,50.1,59.5,73.5,56,99.8z M131.4,118.2c-0.5,0-0.6-0.7-0.4-1c0.6-0.7,1.8-0.7,1.9-1.8c0-0.1,0.1-0.2,0.2-0.2c0,0.6,0,1.3,0,1.9  c-0.1,0-0.2,0-0.3,0C132.2,117.3,132.1,118.2,131.4,118.2z M132.3,123.2c-0.1-0.4,0.2-0.7,0.1-1.2c-0.1-0.3-0.2-0.8,0.3-1  c-0.7-0.8-0.2-1.7,0.3-2.6c0,2,0.1,4,0.3,6C132.9,124.1,132.4,123.8,132.3,123.2z M134.8,101.7c-0.1,0-0.1,0-0.2,0  c0.1-0.1,0.2-0.1,0.2-0.2C134.8,101.5,134.8,101.6,134.8,101.7z M220.9,150.8c-2.8,4.2-6.2,8.1-9.9,11.6c-0.1-0.1-0.1-0.2-0.2-0.3  l-2.5-4.9L220.9,150.8z M207.3,157.7l1.7,3.4c0,0-0.1,0.1-0.1,0.1c-0.4,0.4-0.7,1.4-1.6,1.5c-0.9,0.1-0.9-0.7-1.3-1.3  c-0.2-0.2-0.4-0.4-0.7-0.3c-1.3,0.2-2.5-0.2-3.7-0.5L207.3,157.7z M200.2,161.3c-0.4,1.2-1.6,2.1-3,2.2c-0.7,0.1-1.5,0.7-2.3,0.6  c-0.1,0-0.1,0-0.2-0.1L200.2,161.3z M148.4,166.8c-0.3,0-0.5,0.1-0.8,0.4c-0.5,0.4-0.9-0.3-1.4-0.5c-0.2,0.4-0.6,0.3-0.9,0.3  c-0.5-0.1-0.5-0.7-0.7-1.2c-0.2-0.5-1.1,0-1.3-0.5c-0.2-0.8-0.7-1.3-1.5-1.6c-0.2-1.1,0-2.2-0.4-3.3c-0.2-0.5-0.3-1.2-0.8-1.5  c-0.1-0.1-0.2-0.1-0.4-0.2c-0.2-0.1-0.2-0.2-0.3-0.4l2.5-1.3C144.3,160.5,146.2,163.7,148.4,166.8z M129,151.9  c0.1-0.5,0.7-0.8,0.7-1.3c0-0.5,0-1.1-0.2-1.5c-0.4-0.7-1.1-1.1-1.2-1.9c0-0.4,0.2-0.8,0.1-1.1c-0.1-0.3-0.3-0.6-0.1-0.8  c0.2-0.4,0.6-0.7,0.7-1.1c0.1-0.3-0.1-0.8,0-1.1c0.3-0.5,0.2-1.2,0.5-1.6c0.1-0.1,0.3-0.2,0.4-0.2c0.7,0.2,1.4,0.8,2.1,0.5  c0.6-0.2,0.7-1.1,1.1-1.3c0.7-0.3,1.6,0.2,2.3,0.6c0.2,0.1,0.5,0.2,0.8,0.3c0.7,2.5,1.5,4.9,2.4,7.3c-0.3,0-0.6,0.2-0.6,0.5  c0,0.4,0,0.8-0.3,1c-0.4,0.3-1,0.1-1.6,0.2c-0.2,0-0.1,0.3-0.4,0.4c1.1,0.7,2.5-0.1,3.6,0.3c0,0,0.1,0,0.1,0.1  c0.7,1.7,1.5,3.4,2.3,5l-4.1,2.1c0,0,0,0,0,0c-0.1,0-0.2-0.2-0.3,0c0.2-0.4-0.1-0.8-0.3-0.9c-0.2-0.1-0.6,0.2-0.7,0.1  c-0.9-0.5-0.2-1.5-0.2-2.3c0-0.2,0-0.4-0.1-0.6c-0.1-0.3-0.3-0.5-0.3-0.8c0-0.6,0.1-1.2-0.1-1.8c-0.2-0.5-0.6-0.4-0.9-0.3  c-0.6,0.4-1.2,0.5-1.7,0.9c-0.2,0.1-0.1,0.4-0.1,0.5c0.2,1,0.3,2.5-0.9,2.7c-0.7,0.1-1.4-0.5-1.6-1.1c-0.2-0.4,0.1-1-0.3-1.4  c-0.1-0.1-0.1-0.2-0.3-0.2C129.5,153,128.9,152.5,129,151.9z M139.2,158.8c0,0.1-0.1,0.2-0.3,0.3c-0.1,0.1-0.4,0.1-0.6,0.1  L139.2,158.8z M129.8,159.1c0.1-0.1,0.1-0.3,0.2-0.6c0.1-0.4-0.3-0.8-0.3-1.1c0-0.4,0.6-0.4,0.9-0.2c0.2,0.1,0.1,0.5,0.1,0.7  c0.2,0.4,0.7,0.4,0.9,0.6c0.2,0.1,0.3,0.4,0.5,0.5c0.1,0.1,0.3,0.2,0.5,0.2c0.6-0.2,1.3-0.1,1.8,0c0.2,0.1,0.3,0.2,0.4,0.4l-3.9,2  C130.6,160.7,130.2,159.9,129.8,159.1z M150.9,173.2c-0.1,0.2-0.6,0.2-0.6,0.5c0,0.2,0.3,0.5,0.3,0.6c0,0.7-0.5,1.2-0.7,1.9  c-0.1,0.2,0,0.3,0,0.5c-4.5-1.3-8.8-3.1-12.8-5.3c-2-2.8-3.9-5.7-5.5-8.8l3.9-2c0.1,0.2-0.3,0.5-0.2,0.8c0.1,0.4,0.5,0.8,0.8,1  c0.5,0.3,1.1-0.1,1.6,0c1.3,0.5,2.2,1.6,3.3,2.3c-0.3,0.6-0.5,1.3,0,1.6c0.8,0.5,1.5,1.5,2.4,1.1c0.1,0,0.4-0.4,0.7-0.3  c0.4,0.3,0.4,0.9,0.8,1.2c0.5,0.4,1,0.7,1.5,0.9c0.5,0.2,1.2,0.9,1.6,0.3c0.2-0.2,0-0.5,0.1-0.8c0.1-0.4,0.5-0.6,0.8-0.6  c0.4,0.1,0.8,0.3,1,0.7c0,0.1,0,0.2-0.1,0.2c-0.2,0.2-0.6,0.2-0.5,0.5c0.1,0.2,0.2,0.4,0.4,0.6c0,0,0,0.1,0,0.1c0,0,0,0,0.1,0  c0,0,0,0,0,0c0,0,0,0,0,0c0,0,0,0.1,0.1,0.2c0,0.3,0,0.7,0.3,0.9c0.3,0.2,0.7,0.3,0.8,0.6C151,172.5,151,173,150.9,173.2z   M166.3,159.1c-0.6,0.6-0.5,1.4-0.7,2.2c-0.1,0.2-0.5,0.4-0.6,0.4c-1.3-1.6-2.3,0.8-3.8,0.7c0.1,0.1,0.1,0.2,0.1,0.3  c0,0.2-0.2,0.4-0.3,0.3c-0.9-0.3-3.3-0.3-4.1-0.7c0,0.5-1.7,1.9-2.3,1.9c-0.4,0-0.9-0.3-1-0.8c0-0.1,0-0.1,0.1-0.1  c-0.2-0.1-0.5-0.1-0.8-0.2c-0.2,0-0.4,0.3-0.7,0.3c-0.3,0-0.7-0.2-0.7,0c-0.1,0.4-0.4,0.7-0.3,1.2c0,0,0.1,0.1,0.1,0.1  c0.1,0.1,0,0.3-0.1,0.3c-0.4,0.2-0.9,0.5-0.8,1c0.1,0.4,0.2,1-0.1,1.1c-0.1,0-0.2,0-0.3,0c-2.3-3.3-4.5-6.7-6.3-10.3l0.2-0.1  c0.2,0.1,0.3,0.1,0.4,0.2c0.3,0,0.6-0.4,0.8-0.3c0.7,0.1,1.2-0.1,1.7-0.4c-0.1-0.1,0-0.3-0.1-0.3c-0.1-0.1-0.2-0.2-0.4-0.3l1.3-0.6  c0,0.1,0,0.2,0.2,0.2c1,0.3,1.9-1.6,3.1-0.6c0.2,0.2,0.7-0.6,1.2-0.8c0.4-0.2,0.9,0.5,1-0.1c0.1-0.6-0.1-1.1-0.5-1.3l7-3.6  C161.3,151.6,163.6,155.3,166.3,159.1C166.3,159,166.3,159,166.3,159.1z M168.4,162.9c-0.6-0.3-0.7-1.1-0.7-1.9  c0.5,0.7,1.1,1.4,1.6,2.1C169,163.2,168.7,163.1,168.4,162.9z M192.2,163.5c-0.4,0.2-0.8,0.4-1.2,0.4c-1.4,0.2-2.9-0.1-4.3,0.2  c-0.7,0.1-1.5,0.4-2.2,0.3c-1.9-0.4-1.9-3-3.1-4.4c-1.4,0.4-2.4-1-3.8-0.6c-0.5,0.2-0.8,1-1.3,0.9c-1.5-0.2-2.5-1.9-3.8-1.8  c-0.8,0.1-1.4,1.2-1.9,2c-0.2,0.3,0.7,0.8,0.7,1.3c0,0.5-0.2,0.9-0.6,1.2c-4.2-5.4-7.7-10.6-10-15.1l16-8.2  C178.7,143.4,184.8,153.2,192.2,163.5z M212,90.1c0.1,0.2,0,0.4-0.1,0.6c-0.6-0.7-1.3-1.4-2-2.1c0,0,0,0,0,0l2.2-1.1  C211.8,88.3,211.7,89.1,212,90.1z M223.7,83.8c-0.2,0-0.3,0.1-0.5,0c-0.7-0.1-1.2,0.4-1.7,0.5c-0.5,0.1-0.8-0.4-0.8-0.8  c0-0.1,0.2-0.2,0.4-0.2c-0.1-0.1-0.2-0.1-0.4-0.2l2-1C223.1,82.7,223.4,83.3,223.7,83.8z M207.4,80.1c0.4-0.8,0.1-1.7,0.4-2.4  c0.2-0.4,0.8-0.7,1.2-0.6c0.6,0.2,0.8,0.9,1.4,1.2c0.6,0.3,1.1-0.2,1.6-0.1c1.4,0.2,2.4-0.3,3.6-0.3c0.5,0,1.3,0.2,1.8-0.3  c-0.6-0.6-0.4-1.3,0.4-1.7c-0.2-0.2-0.3-0.7-0.5-0.6c-1.6,1-3.4,1.3-5.2,0.8c-0.1,0-0.4,0.1-0.6,0c-1.2-0.1-1.9-1.2-1.8-2.3  c0-0.3,0.6-0.3,0.7-0.2c1.1,1,2.6,0.8,3.8,0.2c0.4-0.2,0.9-0.1,1.2,0.2c0.5,0.6,1.5,0.7,2.3,0.6c1.6,2,3.1,4.1,4.5,6.3l-3.5,1.8  c-0.5-0.5-0.7-1.4-1.3-1.4c-0.8,0-1.2,1.2-1.8,1.9c-0.3,0.3-0.3,0.8-0.5,1.3l-5.2,2.6c-0.2-0.5-0.8-0.7-1.3-1.1  c-0.7-0.6-0.1-1.7,0-2.6c0-0.5-0.5-0.9-0.8-0.9c-0.6-0.1-1.1-0.4-1.3-0.9C206.4,81.1,207.1,80.8,207.4,80.1z M110.2,61.8L110.2,61.8  c0-1.2,1-2.9,3-5c0.1,0.1,0.1,0.1,0.1,0.1c0,0.1,0,0.2,0,0.3c0,0.4,0.1,0.7,0.3,0.9c0.5,0.5,1.2,0.5,2.1,0.2  c-1.9,1.8-3.5,3.4-3.6,3.5c-0.3,0-1.5,0.1-1.8,0.2C110.2,61.9,110.2,61.8,110.2,61.8z M110.8,63.1c0,0-0.1-0.1-0.1-0.1l1.4-0.1  l1.5,1.4l0,0l20.7,20C122.4,73.6,111.6,63.9,110.8,63.1z M139.6,91c0.1-0.1,0.1-0.3,0.2-0.4c-0.6-0.5-1.1-1-1.7-1.5  c0.7,0.6,1.4,1.2,2.1,1.8C140,91,139.8,91,139.6,91z M150.9,79.8c-0.4,1.2-0.8,2.5-1.1,3.8c0.3,0.4,0.6,0.7,0.9,1.1  c-0.6-0.7-1.2-1.5-1.8-2.3c0.1-0.3-0.1-0.5-0.4-0.7c0.1,0,0-0.2,0.1-0.2c0.5-0.3,1.1,0.2,1.4-0.3c0.1-0.1,0.1-0.2,0.2-0.3  c0.2-0.1,0.1-0.3,0.1-0.5c0-0.3-0.5-0.3-0.7-0.5c-0.1-0.1-0.1-0.2,0-0.2c1-0.7,1.7-1.7,2.1-2.9c0.1-0.4,0.6-0.6,0.9-1  C152,77,151.4,78.4,150.9,79.8z M152.5,75l0.2-0.1c-0.4,0.1-0.5,0.5-0.8,0.7c-0.1,0-0.1,0.2-0.2,0.3c-0.2,0.3-0.5,0.5-0.6,0.8  c-0.7,1.3-1.8,2.3-3.2,2.8c-0.1,0.4-0.2,0.7-0.5,1c-0.2-0.3-0.5-0.6-0.7-0.9c2.5-3,5.3-5.7,8.5-8c-0.8,1-1.5,2.1-2.2,3.3  c0,0,0-0.1-0.1-0.1C152.9,74.8,152.7,75.1,152.5,75z M159,69.8c-0.3,0.9-0.5,2-0.6,3.2c-0.2,0.1-0.5,0.1-0.7,0.1  c0.2,0.3,0.3,0.6,0.1,0.9c-0.7,0.9-2,1.4-2.3,2.5c-0.5-0.3-0.9-0.1-1.3,0.4c0.3,0.1-0.1,0.5,0.2,0.6c-0.3,0.1-0.4,0.6-0.8,0.6  c-0.3,0-0.5-0.1-0.6-0.3c0.3-0.7,0.6-1.3,0.9-1.9c0.2-0.2,0.3-0.4,0.4-0.7c0,0-0.1,0-0.1,0.1c1.4-2.4,3-4.4,5-5.9  C159.1,69.6,159.1,69.7,159,69.8z M160.1,70.6c0-0.1,0.1-0.3,0.1-0.4c0.2-0.6,0.5-1.1,0.8-1.5c0.3,0.6,0.9,1.6,1.6,3  c-0.3,0.1-0.5,0.1-0.8,0c-0.6-0.2-0.1-1.1-0.5-1.3C161,70.2,160.5,70.5,160.1,70.6z M185,62.4c-0.4,0.3-1,0.1-1.4,0.2  c-1.5,0.3-2.4,1.8-3.8,2.6c0.4,0.8,1.2,1.3,1.7,2c0.3,0.4,1-0.8,1.6-0.4c0.6,0.3,0.1,0.9-0.1,1.4c-1.8-0.8-3.5-1.5-5.3-2.1  c-3.3-1-6.3-1.4-9.1-1.3C173.8,63,179.3,62.2,185,62.4z M179.8,61.3c1.4-0.3,2.9-0.5,4.3-0.7c0.1,0.2,0.1,0.4,0.2,0.6  C182.8,61.1,181.3,61.2,179.8,61.3z M185.5,69.1c0.4,0.2,0.8,0.5,1.1,0.8l-0.1,0c-1.1-0.6-2.2-1.1-3.2-1.6c0.6-0.3,1.2-0.5,1.9-0.3  C185.5,68.2,185.1,68.8,185.5,69.1z M177.3,67.2c2.6,0.8,5.2,1.9,7.9,3.4l-8.9,4.5c-4.3-4.2-8.3-7.3-11.4-8.3  c-0.1,0-0.3-0.1-0.4-0.1C168.1,65.6,172.5,65.8,177.3,67.2z M164.5,68c2.9,0.9,6.6,3.7,10.6,7.7l-1.4,0.7c0-0.2-0.1-0.4-0.3-0.4  c-0.8-0.3-1.3,0.7-2,0.9c-0.6,0.6-1.5,1-2.2,1.2c-0.4,0.1-0.9,0.5-1.2,1c0,0-0.1,0.1-0.1,0.1c-0.4-0.7-0.8-1.4-1.1-2.1  c0-0.1,0.1-0.2,0.1-0.2l1.1,2.2l-1.1-2.2c0.1-0.4,0.2-0.9,0.2-1.3c0-0.5-0.7-0.5-1.2-0.6l-0.8-1.6c0.1-0.3,0.2-0.5,0.5-0.7  c-0.2,0.1-0.4,0.2-0.7,0.3c-0.1,0-0.2,0-0.3,0.1c-1.4-2.5-2.3-4.3-2.8-5.1c0.2,0,0.3-0.1,0.5-0.1C163,67.7,163.7,67.8,164.5,68z   M164.3,79c0.8-0.1,1.4-0.4,1.8-0.9c0.3,0.5,0.6,1.1,0.9,1.6l-3.3,1.7c0.2-0.2,0.3-0.3,0.4-0.5C164.5,80.3,163.9,79.1,164.3,79z   M165.2,73.3l0.8,1.6c-0.1,0-0.3-0.1-0.4-0.2c0,0,0,0,0,0c-0.1-0.2-0.2-0.4-0.4-0.7C165.1,73.7,165.1,73.5,165.2,73.3z M166.7,109.3  c-2.2-6.9-4.1-14.1-5.5-20.5c0,0,0-0.1,0-0.1c0-0.9,0.5-2.2,0.8-3c0.1-0.3-0.9-0.8-0.9-1.3c0-0.1,0-0.2,0.1-0.3l6.3-3.2  c2.5,4.6,5.3,9.8,8.1,14.9l3.7,7.2L166.7,109.3z M180.5,102.3c-3.1-5.9-6.9-12.9-10.3-19.1l-1.5-2.9l1.5,2.9c-0.5-1-1-1.9-1.5-2.8  l0.1,0l1.9-1c0.4,0,0.8,0.1,1.2,0.5c0.6-0.4,0.9-1.1,1.2-1.7l3-1.5c5.3,5.3,11.1,12.5,16.5,19.6L180.5,102.3z M200.7,82.6  c0.9,0.3,1.3,1.1,2.1,1.3c-0.6,0.7-1.1,1.6-1.9,1.9c-1.2,0.4-1.8,1.5-2.8,2.1c0.2,0.2,0,0.5,0.2,0.6c1,0.4,2.1,0.3,2.8,1.1  c0.5,0.6,0.5,1.3,0.4,2l-7.9,4c-5.3-7-11.1-14.2-16.4-19.6l9.3-4.7c2.5,1.4,5,3.1,7.5,4.9c-0.4,0-0.8,0-1.1,0.2  c-0.6,0.4-1.1,1-1.9,0.9c-0.9-0.1-1.4-1-2.3-1.2c-0.4-0.1-0.7-0.5-1.2-0.2c-0.2,0.2-0.6,0-0.6,0.2c0.4,1.5,2.2,1.7,3.5,2.2  c0.6,0.2,0.8,1,1.3,1.4c0.3,0.2,0.8-0.1,1.1,0.3c0.4,0.6,1.6,1.6,1.9,0.9c0.3-0.8,1-1.6,1.3-2.5c0.1-0.2,0.1-0.4,0-0.6  c0.2,0.2,0.5,0.4,0.7,0.6c-0.1,0.4-0.2,0.8-0.1,1.1c-0.3,0-0.4,0.4-0.6,0.6c-0.4,0.6-0.7,1.4-0.9,2.1c0.9-0.4,2-0.3,2.8-1.1  c0.4-0.4,1.1-0.4,1.5-0.1C200.1,81.4,200.2,82.4,200.7,82.6z M193.9,64.1c0-0.2-0.2-0.3-0.2-0.4c0-0.1,0-0.2,0-0.2  c0.5,0.1,0.9,0.2,1.4,0.3c0,0.1,0,0.1,0,0.2c0.1,0.5-0.2,1-0.4,1.5c0.1,0,0.3,0,0.4,0l-4.5,2.3c-0.3,0-0.5-0.1-0.8-0.2  c-0.5-0.2-0.4-1.2-0.7-1.3c-0.8-0.3-1.9-0.3-2.2-1.3c-0.1-0.3,0.3-0.8,0.8-0.7c1.4,0.6,2.4,1.7,3.8,2.3c0.9,0.4,2.1-0.2,2.2-1.1  C193.7,65.2,194,64.7,193.9,64.1z M194.6,62.4C194.6,62.4,194.6,62.4,194.6,62.4C194.6,62.4,194.7,62.4,194.6,62.4  C194.6,62.5,194.6,62.5,194.6,62.4z M199.8,67.3c0,0.7-0.8,1.6-1.7,1.6c0.1,0.1,0.2,0.2,0.1,0.3c-0.6,0.6-1,1.2-1.7,1.5  c-0.6,0.3-1.2,0-1.8-0.2c-0.8-0.2-1.2,0.4-1.8,0.8c0.5,0.2,1.1,0.4,1.6,0.6c0,0-0.1,0.1-0.1,0.1c0.3,0.2,1,0,1,0.5  c0,0.5-0.6,1.2,0,1.5c1.1,0.6,1,1.4,0.9,2.3c-2.2-1.6-4.4-3.2-6.6-4.5c0.2-0.1,0.3-0.1,0.5-0.2c0.6-0.2,1.1,0.2,1.6,0.5  c-0.3-0.7-0.8-1.4-0.3-2c0.4-0.5,1.2-0.5,1.9-0.5c0.6,0,1.4,0.1,1.9-0.3c0.1-0.1,0.2-0.3,0.1-0.4c-0.6-0.5-1.4-0.6-1.9-1.2l2.3-1.2  c0,0,0,0,0,0c0.9,0,1.8-0.3,2.5-0.3C198.8,66.3,199.8,66.8,199.8,67.3z M132.3,61.4c10.1-6.7,22.3-10.6,35.3-10.6  c10.9,0,21.1,2.7,30.1,7.5c-12.5-0.7-25,1.9-36.4,7.8c-6,3.1-11.5,6.9-16.3,11.4c0.3,0.4,0.7,0.9,1,1.3  c-5.1-6.4-10.1-12.7-14.1-17.7C132.1,61.2,132.2,61.3,132.3,61.4z M126.2,56c-0.3,0.2-0.5,0.3-0.8,0.5c-0.6,0.4-1.1,0.8-1.3,1  l0.7,0.8c0.2-0.2,0.6-0.5,1.2-0.9c0.3-0.2,0.6-0.4,0.9-0.6l0.3,0.4c-0.3,0.2-0.5,0.3-0.8,0.5c-0.6,0.4-1.1,0.8-1.3,1l0.7,0.8  c0.2-0.2,0.6-0.5,1.2-0.9c0.3-0.2,0.6-0.4,0.9-0.6l0.3,0.4c-0.2,0.1-0.5,0.3-0.8,0.5c-0.6,0.4-1.1,0.8-1.3,1l0.7,0.8  c0.2-0.2,0.6-0.5,1.2-0.9c0.3-0.2,0.6-0.4,0.9-0.5l0.3,0.4c-0.2,0.1-0.5,0.3-0.8,0.5c-0.6,0.4-1.1,0.8-1.3,1l0.7,0.8  c0.2-0.2,0.6-0.5,1.2-0.9c0.3-0.2,0.6-0.4,0.8-0.5l0.3,0.4c-0.2,0.1-0.5,0.3-0.7,0.5c-0.6,0.4-1.1,0.8-1.3,1l0.7,0.8  c0.2-0.2,0.6-0.5,1.2-0.9c0.3-0.2,0.6-0.4,0.8-0.5l0.3,0.4c-0.2,0.1-0.5,0.3-0.7,0.5c-0.6,0.4-1.1,0.8-1.3,1l0.7,0.8  c0.2-0.2,0.6-0.5,1.2-0.9c0.3-0.2,0.5-0.4,0.8-0.5l0.3,0.4c-0.2,0.1-0.4,0.3-0.7,0.4c-0.6,0.4-1.1,0.8-1.3,1l0.7,0.8  c0.2-0.2,0.6-0.5,1.2-0.9c0.3-0.2,0.5-0.3,0.8-0.5l0.3,0.4c-0.2,0.1-0.4,0.3-0.7,0.4c-0.6,0.4-1.1,0.8-1.3,1l0.7,0.8  c0.2-0.2,0.6-0.5,1.2-0.9c0.3-0.2,0.5-0.3,0.7-0.5l0.3,0.4c-0.2,0.1-0.4,0.3-0.6,0.4c-0.6,0.4-1.1,0.8-1.3,1l0.7,0.8  c0.2-0.2,0.6-0.5,1.2-0.9c0.3-0.2,0.5-0.3,0.7-0.5l0.3,0.4c-0.2,0.1-0.4,0.3-0.6,0.4c-0.6,0.4-1.1,0.8-1.3,1l0.7,0.8  c0.2-0.2,0.6-0.5,1.2-0.9c0.2-0.2,0.5-0.3,0.7-0.4l0.3,0.4c-0.2,0.1-0.4,0.2-0.6,0.4c-0.7,0.4-1.1,0.8-1.3,1l0.7,0.8  c0.2-0.2,0.6-0.5,1.2-0.9c0.2-0.2,0.5-0.3,0.7-0.4l0.3,0.4c-0.2,0.1-0.4,0.2-0.6,0.4c-0.7,0.4-1.1,0.8-1.3,1l0.7,0.8  c0.2-0.2,0.6-0.5,1.2-0.9c0.2-0.2,0.4-0.3,0.7-0.4l0.3,0.4c-0.2,0.1-0.4,0.2-0.6,0.4c-0.7,0.4-1.1,0.8-1.3,1l0.7,0.8  c0.2-0.2,0.6-0.5,1.2-0.9c0.2-0.1,0.4-0.3,0.6-0.4l0.3,0.4c-0.2,0.1-0.3,0.2-0.5,0.3c-0.7,0.4-1.1,0.8-1.3,1l0.7,0.8  c0.2-0.2,0.6-0.5,1.2-0.9c0.2-0.1,0.4-0.3,0.6-0.4c0.1,0.1,0.2,0.3,0.3,0.4c-0.2,0.1-0.3,0.2-0.5,0.3c-0.7,0.5-1.1,0.8-1.3,1  l0.7,0.8c0.2-0.2,0.6-0.5,1.2-0.9c0.2-0.1,0.4-0.2,0.6-0.4c0.1,0.1,0.2,0.3,0.3,0.4c-0.1,0.1-0.3,0.2-0.4,0.3  c-0.7,0.4-1.1,0.8-1.3,1l0.7,0.8c0.2-0.2,0.6-0.5,1.2-0.9c0.2-0.1,0.3-0.2,0.5-0.3c0.1,0.1,0.2,0.3,0.3,0.4  c-0.1,0.1-0.3,0.2-0.4,0.3c-0.7,0.5-1.1,0.8-1.3,1l0.7,0.8c0.2-0.2,0.6-0.5,1.2-0.9c0.2-0.1,0.3-0.2,0.5-0.3  c0.1,0.1,0.2,0.3,0.3,0.4c-0.1,0.1-0.2,0.1-0.4,0.2c-0.7,0.4-1.1,0.8-1.3,1l0.7,0.8c0.2-0.2,0.6-0.5,1.2-0.9  c0.1-0.1,0.3-0.2,0.4-0.3c0.1,0.1,0.2,0.3,0.3,0.4c-0.1,0.1-0.2,0.1-0.3,0.2c-0.7,0.5-1.1,0.8-1.3,1l0.7,0.8  c0.2-0.2,0.6-0.5,1.2-0.9c0.1-0.1,0.3-0.2,0.4-0.2c0.1,0.1,0.2,0.3,0.3,0.4c-0.1,0.1-0.2,0.1-0.3,0.2c-0.7,0.5-1.1,0.8-1.3,1L144,81  c0.2-0.2,0.6-0.5,1.2-0.9c0.1-0.1,0.2-0.1,0.3-0.2c0.1,0.1,0.2,0.3,0.3,0.4c-0.1,0-0.1,0.1-0.2,0.1c-0.7,0.4-1.1,0.8-1.3,1l0.7,0.8  c0.2-0.2,0.6-0.5,1.2-0.9c0.1-0.1,0.2-0.1,0.3-0.2c0.1,0.1,0.2,0.3,0.3,0.4c-0.1,0-0.1,0.1-0.2,0.1c-0.7,0.5-1.1,0.8-1.3,1l0.7,0.8  c0.2-0.2,0.6-0.5,1.2-0.9c0.1-0.1,0.2-0.1,0.2-0.2c0.1,0.1,0.2,0.3,0.3,0.4c0,0-0.1,0.1-0.1,0.1c-0.7,0.5-1.1,0.8-1.3,1l0.7,0.8  c0.2-0.2,0.6-0.5,1.2-0.9c0.1,0,0.1-0.1,0.2-0.1c0.1,0.1,0.2,0.3,0.3,0.4c0,0-0.1,0-0.1,0.1c-0.7,0.4-1.1,0.8-1.3,1l0.7,0.8  c0.2-0.2,0.6-0.5,1.2-0.9c0.1,0,0.1-0.1,0.2-0.1c0.1,0.1,0.2,0.3,0.3,0.4c0,0,0,0,0,0c-0.7,0.5-1.1,0.8-1.3,1l0.7,0.8  c0.2-0.2,0.6-0.5,1.3-0.9c0,0,0.1,0,0.1-0.1c0.1,0.1,0.2,0.3,0.3,0.4c0,0,0,0,0,0c-0.7,0.5-1.1,0.8-1.3,1l0.7,0.8  c0.2-0.2,0.6-0.5,1.3-0.9c0,0,0,0,0.1,0c0.1,0.1,0.2,0.3,0.3,0.4c-0.6,0.4-1,0.8-1.3,1l0.7,0.8c0.2-0.2,0.6-0.5,1.3-0.9c0,0,0,0,0,0  c0.1,0.1,0.2,0.3,0.3,0.4c-0.6,0.4-1,0.7-1.3,1l0.7,0.8c0.2-0.2,0.6-0.5,1.2-0.9c0.1,0.1,0.2,0.3,0.3,0.4c-0.6,0.4-1,0.7-1.2,0.9  l0.7,0.8c0.2-0.2,0.6-0.5,1.2-0.9c0.1,0.1,0.2,0.3,0.3,0.4c-0.6,0.4-0.9,0.7-1.2,0.9l0.7,0.8c0.2-0.2,0.6-0.5,1.1-0.9  c0.1,0.1,0.2,0.3,0.3,0.4c-0.5,0.4-0.9,0.7-1.1,0.9l0.7,0.8c0.2-0.2,0.5-0.4,1.1-0.8c0.1,0.1,0.2,0.3,0.3,0.4  c-0.5,0.4-0.9,0.6-1.1,0.8l0.7,0.8c0.2-0.2,0.5-0.4,1.1-0.8c0.1,0.1,0.2,0.3,0.3,0.4c-0.5,0.3-0.8,0.6-1,0.8l0.7,0.8  c0.2-0.2,0.5-0.4,1-0.8c0.1,0.1,0.2,0.3,0.3,0.4c-0.5,0.3-0.8,0.6-1,0.8l0.7,0.8c0.2-0.2,0.5-0.4,1-0.7c0.1,0.1,0.2,0.3,0.3,0.4  c-0.4,0.3-0.7,0.6-1,0.7l0.7,0.8c0,0,0,0,0,0c-0.2,0.5-0.5,0.9-0.8,1.4l-0.1-0.1c-0.3,0.2-0.6,0.6-1.2,1.2c0,0-0.1,0.1-0.1,0.1  c-0.3,0.2-0.7,0.4-1.1,0.5c0.2-0.3,0.5-0.7,0.9-1.1c0.5-0.6,0.9-1,1.1-1.1l-0.7-0.7c-0.3,0.2-0.6,0.6-1.2,1.2  c-0.4,0.5-0.7,0.9-1,1.3c-0.1-0.1-0.2-0.2-0.4-0.4c0.3-0.4,0.6-0.9,1.1-1.4c0.5-0.6,0.9-1,1.1-1.1l-0.7-0.7  c-0.3,0.2-0.6,0.6-1.2,1.2c-0.4,0.5-0.7,0.9-1,1.3c-0.1-0.1-0.2-0.2-0.4-0.4c0.3-0.4,0.6-0.9,1.1-1.4c0.5-0.6,0.9-1,1.1-1.1  l-0.7-0.7c-0.3,0.2-0.6,0.6-1.2,1.2c-0.4,0.5-0.7,0.9-1,1.3c-0.1-0.1-0.2-0.2-0.4-0.4c0.3-0.4,0.6-0.9,1.1-1.4  c0.5-0.6,0.9-1,1.1-1.1l-0.7-0.7c-0.3,0.2-0.6,0.6-1.2,1.2c-0.4,0.5-0.8,0.9-1,1.3c-0.1-0.1-0.2-0.2-0.4-0.4  c0.3-0.4,0.6-0.9,1.1-1.4c0.5-0.6,0.9-1,1.1-1.1l-0.7-0.7c-0.3,0.2-0.6,0.6-1.2,1.2c-0.4,0.5-0.8,0.9-1,1.3  c-0.1-0.1-0.2-0.2-0.4-0.4c0.3-0.4,0.6-0.9,1.1-1.4c0.5-0.6,0.9-1,1.1-1.1l-0.7-0.7c-0.3,0.2-0.6,0.6-1.2,1.2  c-0.4,0.5-0.8,0.9-1,1.3c-0.1-0.1-0.2-0.2-0.4-0.4c0.3-0.4,0.6-0.9,1.1-1.4c0.5-0.6,0.9-1,1.1-1.1l-0.7-0.7  c-0.3,0.2-0.6,0.6-1.2,1.2c-0.4,0.5-0.8,0.9-1,1.3c-0.1-0.1-0.2-0.2-0.4-0.4c0.3-0.4,0.6-0.9,1.1-1.4c0.5-0.6,0.9-1,1.1-1.1  l-0.7-0.7c-0.3,0.2-0.6,0.6-1.2,1.2c-0.4,0.5-0.8,0.9-1,1.3l-0.4-0.4c0.3-0.4,0.6-0.9,1.1-1.4c0.5-0.6,0.9-1,1.1-1.1l-0.7-0.7  c-0.3,0.2-0.6,0.6-1.1,1.2c-0.4,0.5-0.8,0.9-1,1.3c-0.1-0.1-0.2-0.2-0.4-0.4c0.3-0.4,0.6-0.9,1.1-1.4c0.5-0.6,0.9-0.9,1.1-1.1  l-0.7-0.7c-0.3,0.2-0.6,0.6-1.1,1.2c-0.4,0.5-0.8,0.9-1,1.3c-0.1-0.1-0.2-0.2-0.4-0.4c0.3-0.4,0.6-0.9,1.1-1.4  c0.5-0.6,0.9-1,1.1-1.1l-0.7-0.7c-0.3,0.2-0.6,0.6-1.1,1.2c-0.4,0.5-0.8,0.9-1,1.3c-0.1-0.1-0.2-0.2-0.4-0.4  c0.3-0.4,0.6-0.9,1.1-1.4c0.5-0.6,0.9-0.9,1.1-1.1l-0.7-0.7c-0.3,0.2-0.6,0.6-1.1,1.2c-0.4,0.5-0.8,1-1,1.3  c-0.1-0.1-0.2-0.2-0.4-0.4c0.3-0.4,0.6-0.9,1.1-1.4c0.5-0.6,0.9-0.9,1.1-1.1l-0.7-0.7c-0.3,0.2-0.6,0.6-1.1,1.2  c-0.4,0.5-0.8,1-1,1.3c-0.1-0.1-0.2-0.2-0.4-0.4c0.3-0.4,0.6-0.9,1.1-1.4c0.5-0.6,0.9-0.9,1.1-1.1l-0.7-0.7  c-0.3,0.2-0.6,0.6-1.1,1.2c-0.4,0.5-0.8,1-1,1.4c-0.1-0.1-0.2-0.2-0.4-0.4c0.3-0.4,0.6-0.9,1.1-1.5c0.5-0.6,0.9-0.9,1.1-1.1  l-0.7-0.7c-0.3,0.2-0.6,0.6-1.1,1.2c-0.4,0.5-0.8,1-1.1,1.4c-0.1-0.1-0.2-0.2-0.4-0.4c0.3-0.4,0.6-0.9,1.1-1.5  c0.5-0.6,0.9-0.9,1.1-1.1l-0.7-0.7c-0.3,0.2-0.6,0.6-1.1,1.2c-0.4,0.5-0.8,1-1.1,1.4c-0.1-0.1-0.2-0.2-0.4-0.4  c0.3-0.4,0.6-0.9,1.1-1.5c0.5-0.6,0.9-0.9,1.1-1.1l-0.7-0.7c-0.3,0.2-0.6,0.6-1.1,1.2c-0.4,0.5-0.8,1-1.1,1.4  c-0.1-0.1-0.2-0.3-0.4-0.4c0.3-0.4,0.6-0.9,1.1-1.5c0.5-0.6,0.9-0.9,1.1-1.1l-0.7-0.7c-0.3,0.2-0.6,0.6-1.1,1.2  c-0.4,0.5-0.8,1-1.1,1.4c-0.1-0.1-0.2-0.2-0.4-0.4c0.3-0.4,0.6-0.9,1.1-1.5c0.5-0.6,0.9-0.9,1.1-1.1l-0.7-0.7  c-0.3,0.2-0.6,0.6-1.1,1.2c-0.4,0.5-0.8,1-1.1,1.4c-0.1-0.1-0.2-0.2-0.4-0.4c0.3-0.4,0.6-0.9,1.1-1.5c0.5-0.6,0.9-0.9,1.1-1.1  l-0.7-0.7c-0.3,0.2-0.6,0.6-1.1,1.2c-0.4,0.5-0.8,1-1.1,1.4c-0.1-0.1-0.2-0.2-0.4-0.4c0.3-0.4,0.6-0.9,1.1-1.5  c0.5-0.6,0.9-0.9,1.1-1.1l-0.7-0.7c-0.3,0.2-0.6,0.6-1.1,1.2c-0.4,0.5-0.8,1-1.1,1.4c-0.1-0.1-0.2-0.2-0.4-0.4  c0.3-0.4,0.6-0.9,1.1-1.5c0.5-0.6,0.9-0.9,1.1-1.1l-0.7-0.7c-0.3,0.2-0.6,0.6-1.1,1.2c-0.4,0.5-0.8,1-1.1,1.4  c-0.1-0.1-0.2-0.2-0.4-0.4c0.3-0.4,0.6-0.9,1.1-1.5c0.5-0.6,0.9-0.9,1.1-1.1l-0.7-0.7c-0.3,0.2-0.6,0.6-1.1,1.2  c-0.5,0.5-0.8,1-1.1,1.4c-0.1-0.1-0.2-0.2-0.4-0.4c0.3-0.4,0.6-0.9,1.1-1.5c0.5-0.6,0.9-0.9,1.1-1.1l-0.7-0.7  c-0.3,0.2-0.6,0.6-1.1,1.2c-0.5,0.5-0.8,1-1.1,1.4c-0.1-0.1-0.2-0.2-0.4-0.4c0.3-0.4,0.6-0.9,1.1-1.5c0.5-0.6,0.9-0.9,1.1-1.1  l-0.7-0.7c-0.3,0.2-0.6,0.6-1.1,1.2c-0.5,0.5-0.8,1-1.1,1.4c-0.1-0.1-0.2-0.2-0.4-0.4c0.3-0.4,0.7-0.9,1.2-1.5  c0.5-0.6,0.9-0.9,1.1-1.1l-0.7-0.7c-0.3,0.2-0.6,0.6-1.1,1.2c-0.5,0.5-0.8,1-1.1,1.4c-0.1-0.1-0.2-0.2-0.4-0.4  c0.3-0.4,0.7-1,1.2-1.5c0.5-0.6,0.9-0.9,1.1-1.1l-0.7-0.7c-0.3,0.2-0.6,0.6-1.1,1.2c-0.5,0.5-0.8,1-1.1,1.4  c-0.1-0.1-0.2-0.2-0.4-0.4c0.3-0.4,0.7-1,1.2-1.5c0.5-0.6,0.9-0.9,1.1-1.1l-0.7-0.7c-0.3,0.2-0.6,0.6-1.1,1.2  c-0.5,0.5-0.8,1-1.1,1.5c-0.1-0.1-0.2-0.2-0.4-0.4c0.3-0.4,0.7-1,1.2-1.6c0.5-0.6,0.9-0.9,1.1-1.1l-0.7-0.7  c-0.3,0.2-0.6,0.6-1.1,1.2c-0.5,0.5-0.8,1-1.1,1.5c-0.1-0.1-0.2-0.2-0.4-0.4c0.3-0.4,0.7-1,1.2-1.6c0.5-0.6,0.9-0.9,1.1-1.1  l-0.7-0.7c-0.3,0.2-0.6,0.6-1.1,1.2c-0.5,0.5-0.8,1.1-1.1,1.5c-0.1-0.1-0.2-0.2-0.4-0.4c0.3-0.4,0.7-1,1.2-1.6  c0.5-0.6,0.9-0.9,1.1-1.1l-0.7-0.7c-0.3,0.2-0.6,0.6-1.1,1.2c-0.5,0.6-0.8,1.1-1.1,1.5c-0.1-0.1-0.2-0.3-0.4-0.4  c0.3-0.4,0.7-1,1.2-1.6c0.5-0.6,0.8-0.9,1.1-1.1l-0.7-0.7c-0.3,0.2-0.6,0.6-1.1,1.2c-0.5,0.6-0.9,1.1-1.1,1.5  c-0.1-0.1-0.2-0.2-0.4-0.4c0.3-0.4,0.7-1,1.2-1.6c0.5-0.6,0.8-0.9,1.1-1.1l-0.7-0.7c-0.3,0.2-0.6,0.6-1.1,1.2  c-0.5,0.6-0.9,1.1-1.1,1.5c-0.1-0.1-0.2-0.2-0.4-0.4c0.3-0.4,0.7-1,1.2-1.6c0.5-0.6,0.8-0.9,1.1-1.1l-0.7-0.7  c-0.3,0.2-0.6,0.6-1.1,1.2c-0.5,0.6-0.9,1.1-1.1,1.5c-0.1-0.1-0.2-0.3-0.4-0.4c0.3-0.4,0.7-1,1.2-1.6c0.5-0.6,0.8-0.9,1.1-1.1  l-0.7-0.7c-0.3,0.2-0.6,0.6-1.1,1.2c-0.5,0.6-0.9,1.1-1.2,1.5c-0.2-0.2-0.3-0.3-0.4-0.4c0.4-0.5,0.9-1.3,1.7-2.2  c1.6-1.8,2.3-2.2,2.5-2.3l-0.7-0.8c-0.2,0.1-0.4,0.3-0.7,0.5c0.2-0.2,0.4-0.4,0.6-0.6c2.1-1.8,3.7-2.5,3.7-2.5L126.2,56z M123.4,52  c0.2,0.3,0.6,0.7,1,1.2l-0.6,0.1L113.7,63l-0.8-0.7l10.4-9.9L123.4,52z M121.7,50.9c0.3,0,0.6,0.1,0.9,0.3c-0.1,0.3-0.2,0.6-0.2,0.7  c-0.1,0.1-2,1.9-4.1,4c0.3-0.8,0.3-1.5-0.1-2c-0.3-0.3-0.7-0.4-1.2-0.4c0,0,0,0-0.1-0.1C119,51.6,120.6,50.8,121.7,50.9z M88.3,23  c-0.3-0.3-0.6-0.6-0.8-0.8C87.7,22.4,87.9,22.7,88.3,23z M84.8,25.1c0.3-0.3,1-0.9,1.5-1.4l0.1,0.1c0.1-0.1,0.4-0.3,0.7-0.6  c0.1,0.1,0.2,0.2,0.4,0.4c-0.3,0.2-0.5,0.4-0.7,0.6l0.7,0.7c0.1-0.1,0.4-0.3,0.7-0.6c0.1,0.1,0.2,0.2,0.4,0.4  c-0.3,0.2-0.5,0.4-0.7,0.6l0.7,0.7c0.1-0.1,0.4-0.3,0.7-0.6c0.1,0.1,0.2,0.3,0.4,0.4c-0.3,0.2-0.5,0.4-0.7,0.6l0.7,0.7  c0.1-0.1,0.4-0.3,0.7-0.6c0.1,0.1,0.2,0.3,0.4,0.4c-0.3,0.2-0.5,0.4-0.7,0.6l0.7,0.7c0.1-0.1,0.4-0.3,0.7-0.6  c0.1,0.1,0.2,0.3,0.4,0.4c-0.3,0.2-0.5,0.4-0.7,0.6l0.7,0.7c0.1-0.1,0.4-0.3,0.7-0.6c0.1,0.1,0.2,0.3,0.4,0.4  c-0.3,0.2-0.5,0.4-0.7,0.6l0.7,0.7c0.1-0.1,0.4-0.3,0.7-0.6c0.1,0.1,0.2,0.3,0.4,0.4c-0.3,0.2-0.5,0.4-0.7,0.6l0.7,0.7  c0.1-0.1,0.4-0.3,0.7-0.6c0.1,0.1,0.2,0.3,0.4,0.4c-0.3,0.2-0.5,0.4-0.7,0.6l0.7,0.7c0.1-0.1,0.4-0.3,0.7-0.6  c0.1,0.1,0.2,0.3,0.4,0.4c-0.3,0.2-0.5,0.4-0.7,0.6l0.7,0.7c0.1-0.1,0.4-0.3,0.7-0.6c0.1,0.1,0.2,0.3,0.4,0.4  c-0.3,0.2-0.5,0.4-0.7,0.6l0.7,0.8c0.1-0.1,0.4-0.3,0.7-0.6c0.1,0.1,0.2,0.3,0.4,0.4c-0.3,0.2-0.5,0.4-0.7,0.6l0.7,0.7  c0.1-0.1,0.4-0.3,0.7-0.6c0.1,0.1,0.2,0.3,0.4,0.4c-0.3,0.2-0.5,0.4-0.7,0.6l0.7,0.7c0.1-0.1,0.4-0.3,0.7-0.6  c0.1,0.1,0.2,0.3,0.4,0.4c-0.3,0.2-0.5,0.4-0.7,0.6l0.7,0.7c0.1-0.1,0.4-0.3,0.7-0.6c0.1,0.1,0.2,0.3,0.4,0.4  c-0.3,0.2-0.5,0.4-0.7,0.6l0.7,0.7c0.1-0.1,0.4-0.3,0.7-0.6c0.1,0.1,0.2,0.3,0.4,0.4c-0.3,0.2-0.5,0.4-0.7,0.6l0.7,0.7  c0.1-0.1,0.4-0.3,0.7-0.6c0.1,0.1,0.2,0.3,0.4,0.4c-0.3,0.2-0.5,0.4-0.7,0.6l0.7,0.7c0.1-0.1,0.4-0.3,0.7-0.6  c0.1,0.1,0.2,0.3,0.4,0.4c-0.3,0.2-0.5,0.4-0.7,0.6l0.7,0.7c0.1-0.1,0.4-0.3,0.7-0.6c0.1,0.1,0.2,0.3,0.4,0.4  c-0.3,0.2-0.5,0.4-0.7,0.6l0.7,0.7c0.1-0.1,0.4-0.3,0.7-0.6c0.1,0.1,0.2,0.3,0.4,0.4c-0.3,0.2-0.5,0.4-0.7,0.6l0.7,0.7  c0.1-0.1,0.4-0.3,0.7-0.6c0.1,0.1,0.2,0.3,0.4,0.4c-0.3,0.2-0.5,0.4-0.7,0.6l0.7,0.8c0.1-0.1,0.4-0.3,0.7-0.6  c0.1,0.1,0.2,0.3,0.4,0.4c-0.3,0.2-0.5,0.5-0.7,0.6l0.7,0.7c0.1-0.1,0.4-0.3,0.7-0.6c0.1,0.1,0.2,0.3,0.4,0.4  c-0.3,0.2-0.5,0.4-0.7,0.6l0.7,0.8c0.1-0.1,0.4-0.3,0.7-0.6c0.1,0.1,0.2,0.3,0.4,0.4c-0.3,0.2-0.5,0.5-0.7,0.6l0.7,0.7  c0.1-0.1,0.4-0.3,0.7-0.6c0.1,0.1,0.2,0.3,0.4,0.4c-0.3,0.2-0.5,0.5-0.7,0.6l0.7,0.7c0.1-0.1,0.4-0.3,0.7-0.6  c0.1,0.1,0.2,0.3,0.4,0.4c-0.3,0.2-0.5,0.5-0.7,0.6l0.7,0.7c0.1-0.1,0.4-0.3,0.7-0.6c0.1,0.1,0.2,0.3,0.4,0.4  c-0.3,0.2-0.5,0.5-0.7,0.6l0.7,0.7c0.1-0.1,0.4-0.3,0.7-0.6c0.1,0.1,0.3,0.3,0.4,0.4c-0.3,0.2-0.5,0.5-0.7,0.6l0.7,0.7  c0.1-0.1,0.4-0.3,0.7-0.6c0.2,0.2,0.3,0.3,0.4,0.4c-0.3,0.2-0.5,0.5-0.7,0.6l0.7,0.7c0.2-0.2,0.5-0.5,1-0.8c-0.1,0.4-0.4,1-1,1.6  c-0.9,0.9-1.9,1.1-2.1,0.8c0,0-0.1-0.1-0.1-0.2c0-0.1,0-0.2,0.1-0.3l0.1-0.3C114.4,56.5,85.5,25.9,84.8,25.1z M188.7,79.1  c-0.1,0.1-0.1,0.2-0.2,0.3c0.1,0,0.2,0,0.3,0C188.8,79.3,188.8,79.2,188.7,79.1z M190.5,80c-0.3-0.2-0.8,0-1.3-0.1  c-0.3-0.1-0.2-0.4-0.4-0.5c-0.1,0.3-0.4,0.4-0.7,0.4c-0.5-0.1-1-0.3-1.3-0.2c-0.5,0.1-0.4,0.9-0.7,1.4c0.7,0.3,1.6,0.2,2.2,0.7  c0.4,0.4,0.7,1.1,1.3,1c0.7,0,1-0.7,1.5-1.2C190.6,81.1,190.9,80.3,190.5,80z M129.8,58.3c10.8-7.3,23.9-11.5,37.9-11.5  c32.4,0,59.6,22.7,66.5,53h0.9c-6.9-30.8-34.5-53.9-67.4-53.9c-14.2,0-27.4,4.3-38.4,11.7C129.4,57.8,129.6,58.1,129.8,58.3z"/>
<path class="st1" d="M110.3,195l7.6-23.2l-1.7-1.5l-22,10.2l2.4,2.2l6.5-3l7,6.3l-2.2,6.8L110.3,195z M105.9,178.3l7.8-3.8L111,183  L105.9,178.3z"/>
<g>
	<polygon points="137.8,208.7 154.7,191.4 151.7,190.2 140.3,202.1 140.4,185.6 137.6,184.4 126.1,196.3 126.2,179.8 123.3,178.6    123.1,202.7 123.7,202.9 137.4,188.9 137.3,208.5  "/>
	<path d="M158.8,206l9.4,0.4l2.7,6.7l3.3,0.1l-9-22.7l-2.2-0.1l-10.5,21.9l3.3,0.1L158.8,206z M163.8,195.3l3.2,8.2l-6.9-0.3   L163.8,195.3z"/>
	<path d="M191.1,205.3l3.9,3.8l3.7-0.8c-2-1.7-2.7-2.3-3.9-3.6c-2.3-2.3-3.9-4.1-6.2-4.9c2.1-1.4,3-3.6,2.4-6.1   c-0.8-3.7-4.1-5.5-8.5-4.5l-5.5,1.2l4.8,21.7l3.1-0.7l-2.1-9.4l1.3-0.3C185.8,201.3,187.2,201.5,191.1,205.3z M182.3,199.2   l-1.5-6.8l2-0.4c3-0.7,4.5,0.3,5,2.3c0.4,1.8-0.1,3.7-3.5,4.5L182.3,199.2z"/>
	<path d="M213.5,201.4c6.4-3.5,7.7-10.4,5-15.4c-2.5-4.6-8.5-8-15.7-4.1l-7.6,4.1l10.7,19.5L213.5,201.4z M203.7,184.7   c5.5-3,9.8-1,11.9,2.9c1.3,2.4,2.5,8-3.8,11.5l-4.5,2.4l-7.9-14.5L203.7,184.7z"/>
	<path d="M226.2,186.2l2.8,2.9c2.3-0.2,4.2-1.1,5.9-2.8c2.6-2.5,2.8-6.1,0.4-8.6c-4.8-5.1-11.8,1.5-14.7-1.6   c-1.1-1.1-0.7-2.9,0.8-4.3c1.1-1,2.8-1.9,5.4-1.9l-2.5-2.6c-1.9,0.3-3.4,1.1-4.7,2.2c-3,2.8-3.3,6.3-0.9,8.9   c4.2,4.4,11.5-1.8,14.7,1.6c0.8,0.9,1.1,2.8-0.7,4.5C231.1,186,228.8,186.6,226.2,186.2z"/>
	<polygon points="137.8,208.7 154.7,191.4 151.7,190.2 140.3,202.1 140.4,185.6 137.6,184.4 126.1,196.3 126.2,179.8 123.3,178.6    123.1,202.7 123.7,202.9 137.4,188.9 137.3,208.5  "/>
	<path d="M158.8,206l9.4,0.4l2.7,6.7l3.3,0.1l-9-22.7l-2.2-0.1l-10.5,21.9l3.3,0.1L158.8,206z M163.8,195.3l3.2,8.2l-6.9-0.3   L163.8,195.3z"/>
	<path d="M191.1,205.3l3.9,3.8l3.7-0.8c-2-1.7-2.7-2.3-3.9-3.6c-2.3-2.3-3.9-4.1-6.2-4.9c2.1-1.4,3-3.6,2.4-6.1   c-0.8-3.7-4.1-5.5-8.5-4.5l-5.5,1.2l4.8,21.7l3.1-0.7l-2.1-9.4l1.3-0.3C185.8,201.3,187.2,201.5,191.1,205.3z M182.3,199.2   l-1.5-6.8l2-0.4c3-0.7,4.5,0.3,5,2.3c0.4,1.8-0.1,3.7-3.5,4.5L182.3,199.2z"/>
	<path d="M213.5,201.4c6.4-3.5,7.7-10.4,5-15.4c-2.5-4.6-8.5-8-15.7-4.1l-7.6,4.1l10.7,19.5L213.5,201.4z M203.7,184.7   c5.5-3,9.8-1,11.9,2.9c1.3,2.4,2.5,8-3.8,11.5l-4.5,2.4l-7.9-14.5L203.7,184.7z"/>
	<path d="M110.3,195l7.6-23.2l-1.7-1.5l-22,10.2l2.4,2.2l6.5-3l7,6.3l-2.2,6.8L110.3,195z M105.9,178.3l7.8-3.8L111,183L105.9,178.3   z"/>
	<path d="M226.2,186.2l2.8,2.9c2.3-0.2,4.2-1.1,5.9-2.8c2.6-2.5,2.8-6.1,0.4-8.6c-4.8-5.1-11.8,1.5-14.7-1.6   c-1.1-1.1-0.7-2.9,0.8-4.3c1.1-1,2.8-1.9,5.4-1.9l-2.5-2.6c-1.9,0.3-3.4,1.1-4.7,2.2c-3,2.8-3.3,6.3-0.9,8.9   c4.2,4.4,11.5-1.8,14.7,1.6c0.8,0.9,1.1,2.8-0.7,4.5C231.1,186,228.8,186.6,226.2,186.2z"/>
</g>
<g>
	<polygon points="44.6,104.9 35.8,127.1 26.8,104.9 22.4,104.9 13.5,127.1 4.6,104.9 0,104.9 13,137.4 13.9,137.4 24.6,111    35.2,137.4 36.1,137.4 49.1,104.9  "/>
	<path d="M83.1,121c0-9-6.7-16.5-17.3-16.5c-10.4,0-17.3,7.6-17.3,16.5c0,8.7,6.7,16.5,17.2,16.5C76.6,137.5,83.1,129.7,83.1,121z    M53.2,121c0-7.1,5.3-12.3,12.5-12.3c7.2,0,12.6,5.2,12.6,12.3c0,7-5.3,12.3-12.6,12.3C58.6,133.3,53.2,128,53.2,121z"/>
	<path d="M106.6,113.9c0-5.6-4.1-9-10.6-9h-8.1v32.2h4.6v-14h1.9c2.4,0,4.3,0.8,8.5,7.4l4.2,6.6h5.5c-2.2-3.1-3-4.2-4.4-6.4   c-2.5-4-4.2-7-7.2-8.9C104.6,120.4,106.6,117.6,106.6,113.9z M95.5,119h-3v-10.1h3c4.5,0,6.3,1.8,6.3,4.9   C101.9,116.4,100.4,119,95.5,119z"/>
	<path d="M167.2,121c0-7.6-5.2-16.1-17.1-16.1h-12.5v32.2h12.6C160.8,137.1,167.2,129.2,167.2,121z M142.2,132.9V109h7.1   c9,0,13.1,5.5,13.1,11.9c0,4-2.4,11.9-12.9,11.9H142.2z"/>
	<polygon points="115.3,104.9 115.3,137.1 134.5,137.1 134.5,132.9 119.9,132.9 119.9,104.9  "/>
	<path d="M298.1,112.4c0-2.3,2.1-3.8,5.1-3.8c2.2,0,4.8,0.8,7.6,3.4v-5.2c-2.3-1.5-4.7-2.3-7.2-2.3c-5.9,0-9.8,3.4-9.8,8.6   c0,8.8,13.9,9.6,13.9,16.2c0,1.8-1.7,4.1-5.2,4.1c-3.2,0-6.1-1.7-8.5-4.7v5.9c2.7,2,5.5,3,9,3c5.2,0,9-3.7,9-8.7   C312,118.5,298.1,118.6,298.1,112.4z"/>
	<polygon points="277.4,122.9 290.6,122.9 290.6,118.8 277.4,118.8 277.4,109 291,109 291,104.9 272.8,104.9 272.8,137.1    291.5,137.1 291.5,132.9 277.4,132.9  "/>
	<polygon points="320.7,132.9 320.7,122.9 333.9,122.9 333.9,118.8 320.7,118.8 320.7,109 334.4,109 334.4,104.9 316.1,104.9    316.1,137.1 334.8,137.1 334.8,132.9  "/>
	<polygon points="268.8,132.9 254.7,132.9 254.7,122.9 267.9,122.9 267.9,118.8 254.7,118.8 254.7,109 268.4,109 268.4,104.9    250.1,104.9 250.1,137.1 268.8,137.1  "/>
	<polygon points="216.6,104.9 216.6,137.1 221.3,137.1 221.3,123.1 239.3,123.1 239.3,137.1 243.9,137.1 243.9,104.9 239.3,104.9    239.3,118.9 221.3,118.9 221.3,104.9  "/>
	<path d="M187.7,121c0-7.1,5.5-12.3,12.8-12.3c3.7,0,7.1,1,11.1,3.4v-5c-4.4-1.8-7.7-2.6-11-2.6c-10.2,0-17.7,7.2-17.7,17   c0,6.8,5.3,16,17.4,16c5,0,8.5-1.2,11.7-2.8v-5c-3.6,2.4-7.6,3.6-11.2,3.6C193,133.3,187.7,128.3,187.7,121z"/>
</g>
<path d="M153.4,22.1l-14.8,3.4l0.5,2.2c0,0,5.4-1.2,6.2-1.4c0.2,0.9,3.6,15.4,3.6,15.4l2.4-0.6c0,0-3.3-14.5-3.6-15.4  c0.8-0.2,6.2-1.4,6.2-1.4L153.4,22.1z M172.4,29.4c-0.9,0-9.5-0.2-10.3-0.2c0-0.9,0.1-7.9,0.1-7.9l-2.4,0l-0.3,18.1l2.4,0  c0,0,0.1-7.1,0.1-8c0.9,0,9.5,0.2,10.3,0.2c0,0.9-0.1,8-0.1,8l2.4,0l0.3-18.1l-2.4,0C172.5,21.5,172.4,28.5,172.4,29.4z M192.5,26.9  l0.5-2l-10-2.2L179,40.3l10.2,2.3l0.5-2.1c0,0-7-1.6-7.9-1.8c0.2-0.8,1.1-5,1.3-5.8c0.9,0.2,7.4,1.7,7.4,1.7l0.5-2  c0,0-6.6-1.5-7.4-1.7c0.2-0.8,1.1-4.9,1.3-5.6C185.7,25.4,192.5,26.9,192.5,26.9z"/>
<path class="st2" d="M332.7,97.9v-3.5h2l1.7,3.5h1.2l-1.8-3.6c1.2-0.1,1.9-1,1.9-2c0-1.5-1.1-2.2-3.2-2.2h-2.8v7.8H332.7z   M332.7,90.8h1.5c1.6,0,2.4,0.4,2.4,1.4c0,1.2-0.7,1.5-2.4,1.5h-1.5V90.8z M329.9,98.4c-1.2-1.2-1.8-2.7-1.8-4.3  c0-1.6,0.6-3.1,1.8-4.3c1.1-1.1,2.6-1.8,4.3-1.8c1.7,0,3.2,0.6,4.3,1.8c1.1,1.2,1.8,2.7,1.8,4.3c0,1.7-0.6,3.1-1.8,4.3  c-1.2,1.2-2.7,1.8-4.3,1.8C332.6,100.2,331.1,99.6,329.9,98.4z M339,98.9c1.3-1.3,2-2.9,2-4.7c0-1.8-0.7-3.5-2-4.8  c-1.3-1.3-3-2-4.8-2c-1.8,0-3.5,0.7-4.7,1.9c-1.3,1.3-2,3-2,4.8c0,1.8,0.7,3.5,2,4.8c1.3,1.3,3,2,4.8,2  C336,100.9,337.7,100.2,339,98.9z"/>
<script xmlns=""/><script xmlns=""/></svg>