<svg height="34.722" viewBox="0 0 112.24 34.722" width="112.24" xmlns="http://www.w3.org/2000/svg"><path d="m130.635 170.587v-16.137h-12.545v5.779h5.969v22.2h-5.969v5.844h18.195v-5.843h-5.65v-10.985l16.7 16.829h8.67v-5.844h-5.843l-11.779-11.718 13-10.785h5.145v-5.46h-18.48v5.46h5.271z" fill="#777776" transform="translate(-118.09 -154.338)"/><g fill="#c21924"><path d="m358.544 183.773a10.426 10.426 0 0 1 .963 1.495 12.111 12.111 0 0 1 0 11.175 10.548 10.548 0 0 1 -3.81 4.095 9.945 9.945 0 0 1 -5.366 1.525 10.1 10.1 0 0 1 -5.4-1.525 10.709 10.709 0 0 1 -3.874-4.128 11.884 11.884 0 0 1 0-11.179 10.806 10.806 0 0 1 .949-1.461h-7.643a18.564 18.564 0 0 0 -1.593 7.05 18.012 18.012 0 0 0 2.237 8.891 16.581 16.581 0 0 0 6.271 6.382 17.644 17.644 0 0 0 9.05 2.349 17.28 17.28 0 0 0 15.178-8.731 17.524 17.524 0 0 0 2.318-8.891 17.8 17.8 0 0 0 -1.6-7.05h-7.677z" transform="translate(-260.004 -173.72)"/><path d="m379.563 154.12h-22.225a18.832 18.832 0 0 0 -8.457 2.349 18.606 18.606 0 0 0 -4.922 4.179h26.741a9.6 9.6 0 0 0 8.942-6.528" transform="translate(-267.401 -154.12)"/><path d="m253.245 154.47a14.422 14.422 0 0 0 -5.555 1.112 10.694 10.694 0 0 0 -4.43 3.318 8.344 8.344 0 0 0 -1.732 5.318 8.808 8.808 0 0 0 2.349 6.318q2.349 2.476 7.4 3.495l3.4.729a23.36 23.36 0 0 1 5.874 1.668 2.616 2.616 0 0 1 1.461 2.43 3.676 3.676 0 0 1 -1.84 3.349 9.64 9.64 0 0 1 -5.05 1.125 9.081 9.081 0 0 1 -5.128-1.461 5.9 5.9 0 0 1 -2.694-3.871v-1.142h-5.84v11.433h5.84v-1.81a14.158 14.158 0 0 0 3.8 1.7 15.983 15.983 0 0 0 4.62.681q5.908 0 9.48-2.793a8.928 8.928 0 0 0 3.573-7.4q0-7.876-9.874-9.684l-4.413-.858q-4.383-.7-5.637-1.62a2.976 2.976 0 0 1 -1.254-2.542 3.455 3.455 0 0 1 1.651-2.952 7.313 7.313 0 0 1 4.254-1.142 9.04 9.04 0 0 1 7.813 4.095v2.034h5.715v-11.52h-5.715v1.864a16 16 0 0 0 -8.067-1.874" transform="translate(-199.644 -154.351)"/></g></svg>