<svg xmlns="http://www.w3.org/2000/svg" width="252" height="79" viewBox="0 0 252 79" fill="none">
<path d="M71.8246 61.9658H68.7461V78.4641H71.8246V61.9658Z" fill="#161616"/>
<path d="M86.9942 73.5579L77.8523 61.9658H75.5352V78.4641H78.4041V66.8396L87.5459 78.4641H89.8576V61.9658H86.9942V73.5579Z" fill="#161616"/>
<path d="M46.7501 71.6717C46.7501 73.1358 46.408 74.2429 45.7239 74.993C45.3383 75.3863 44.8687 75.6911 44.3489 75.8856C43.8291 76.0801 43.2718 76.1595 42.717 76.1181C41.3157 76.1181 40.2895 75.7431 39.6385 74.993C38.9985 74.2465 38.684 73.1376 38.684 71.6717V61.9351H35.6055V71.6717C35.6055 73.9833 36.1866 75.7305 37.3489 76.9133C38.5111 78.0961 40.3005 78.6821 42.717 78.6713C45.0563 78.6713 46.8144 78.0853 47.9914 76.9133C49.1684 75.7413 49.7642 73.9941 49.779 71.6717V61.9351H46.7501V71.6717Z" fill="#161616"/>
<path d="M29.6089 69.9499C30.2933 69.7163 30.9037 69.3117 31.3798 68.7761C32.0585 67.9476 32.3805 66.8922 32.2775 65.8344C32.1744 64.7767 31.6544 63.8001 30.8281 63.1126C29.8406 62.3445 28.4337 61.9658 26.602 61.9658H19.2422V78.4641H26.8944C28.7335 78.4641 30.1734 78.0656 31.2143 77.2686C31.7284 76.8582 32.1367 76.3348 32.4061 75.7409C32.6754 75.1469 32.7982 74.4991 32.7646 73.85C32.7885 73.3497 32.7099 72.8498 32.5337 72.3797C32.3575 71.9097 32.0871 71.4789 31.7385 71.1129C31.1583 70.5313 30.4186 70.1273 29.6089 69.9499ZM22.1938 64.2323H26.0558C26.9134 64.1679 27.7686 64.3827 28.4889 64.8435C28.7611 65.0473 28.9777 65.314 29.1192 65.6198C29.2607 65.9257 29.3228 66.2611 29.2999 66.5961C29.3211 66.9349 29.2585 67.2737 29.1172 67.5836C28.976 67.8935 28.7604 68.1653 28.4889 68.3758C27.7618 68.8191 26.9096 69.0238 26.0558 68.96H22.1938V64.2323ZM28.9468 75.5917C28.2137 75.9977 27.376 76.1856 26.5358 76.1327H22.1938V71.194H26.5358C27.3812 71.1459 28.2216 71.3496 28.9468 71.7782C29.2447 71.9941 29.4806 72.282 29.6314 72.6137C29.7822 72.9455 29.8429 73.3099 29.8075 73.6715C29.8448 74.0394 29.7852 74.4107 29.6345 74.7497C29.4839 75.0887 29.2471 75.3842 28.9468 75.608V75.5917Z" fill="#161616"/>
<path d="M61.1651 69.356L58.4893 68.8151C57.7643 68.7152 57.0761 68.4401 56.4865 68.0145C56.2989 67.8369 56.1525 67.6218 56.0573 67.3838C55.9621 67.1458 55.9203 66.8904 55.9348 66.6352C55.9244 66.2892 56.0046 65.9464 56.1678 65.6396C56.3311 65.3328 56.5719 65.0721 56.8672 64.8826C57.6605 64.4031 58.5851 64.1746 59.5154 64.228C60.44 64.2156 61.3599 64.3583 62.2354 64.65C63.0588 64.9161 63.8214 65.3368 64.4809 65.8887L65.4353 63.6384C64.7005 62.9863 63.8285 62.5006 62.8809 62.2158C61.8162 61.8548 60.6972 61.6719 59.5706 61.6749C58.3692 61.6495 57.1752 61.8648 56.0617 62.3077C55.1287 62.6767 54.3188 63.2929 53.7225 64.0874C53.1555 64.8777 52.8634 65.8261 52.8894 66.792C52.8531 67.3374 52.9325 67.8843 53.1224 68.3982C53.3123 68.9121 53.6086 69.3819 53.9928 69.7779C54.9731 70.6108 56.1748 71.153 57.4576 71.3412L60.1499 71.8821C60.8854 71.9825 61.5876 72.2472 62.2023 72.6557C62.3939 72.815 62.5439 73.0169 62.6399 73.2446C62.7359 73.4723 62.775 73.7192 62.754 73.9647C62.76 74.2766 62.687 74.5852 62.5416 74.8627C62.3963 75.1402 62.183 75.3781 61.9209 75.555C61.0997 76.0276 60.1501 76.241 59.201 76.1663C58.4884 76.1687 57.7773 76.1053 57.0769 75.9769C55.7819 75.7255 54.5593 75.1973 53.4963 74.4299L52.5859 76.81C53.4669 77.4368 54.45 77.9124 55.4935 78.2164C56.7142 78.5524 57.9772 78.7181 59.2451 78.7086C60.4445 78.7351 61.6373 78.5273 62.754 78.0974C63.6641 77.7363 64.456 77.1376 65.0436 76.3664C65.5883 75.6073 65.8723 74.6979 65.8546 73.77C65.8815 73.2413 65.7931 72.713 65.5952 72.2205C65.3973 71.728 65.0945 71.2825 64.7071 70.9139C63.6993 70.0784 62.4716 69.5384 61.1651 69.356Z" fill="#161616"/>
<path d="M93.5508 78.4641H104.888V76.0732H96.5135V71.2751H104.342V68.8897H96.5135V64.3297H104.888V61.9658H93.5508V78.4641Z" fill="#161616"/>
<path d="M187.446 71.7241C187.214 71.5709 186.962 71.4507 186.695 71.3671C186.969 71.2948 187.236 71.2026 187.495 71.0913C188.294 70.7399 188.967 70.1613 189.426 69.4306C189.908 68.6466 190.149 67.7435 190.122 66.8288C190.158 66.1584 190.04 65.4885 189.775 64.8693C189.511 64.2502 189.107 63.6977 188.593 63.2532C187.589 62.3914 186.166 61.9622 184.323 61.9658H176.969V78.4641H180.047V71.7674H182.673C183.226 71.7529 183.776 71.841 184.295 72.0271C184.536 72.1239 184.753 72.2708 184.93 72.4575C185.107 72.6443 185.241 72.8665 185.322 73.1089L187.804 78.4695H191.197L188.737 73.2928C188.465 72.6614 188.018 72.1177 187.446 71.7241ZM183.821 69.5604H180.047V64.3459H183.821C184.691 64.2859 185.557 64.5166 186.276 65.0004C186.568 65.2328 186.798 65.5305 186.948 65.8685C187.098 66.2064 187.163 66.5747 187.137 66.9424C187.16 67.3129 187.095 67.6836 186.945 68.0247C186.796 68.3658 186.566 68.6676 186.276 68.9059C185.555 69.384 184.689 69.6089 183.821 69.5442V69.5604Z" fill="#161616"/>
<path d="M115.321 69.356L112.65 68.8151C111.923 68.7161 111.233 68.4409 110.642 68.0145C110.454 67.8369 110.308 67.6218 110.213 67.3838C110.118 67.1458 110.076 66.8904 110.09 66.6352C110.08 66.2892 110.16 65.9464 110.323 65.6396C110.487 65.3328 110.727 65.0721 111.023 64.8826C111.816 64.4037 112.741 64.1753 113.671 64.228C114.597 64.2161 115.519 64.3587 116.396 64.65C117.218 64.9175 117.978 65.3381 118.636 65.8887L119.591 63.6384C118.856 62.9863 117.984 62.5006 117.036 62.2158C115.972 61.8548 114.853 61.6719 113.726 61.6749C112.525 61.6495 111.331 61.8648 110.217 62.3077C109.284 62.6767 108.474 63.2929 107.878 64.0874C107.311 64.8777 107.019 65.8261 107.045 66.792C107.018 67.3348 107.106 67.8771 107.303 68.3852C107.499 68.8933 107.8 69.3564 108.187 69.7455C109.167 70.5783 110.369 71.1205 111.652 71.3088L114.344 71.8497C115.081 71.9515 115.785 72.216 116.402 72.6232C116.593 72.7834 116.742 72.9855 116.838 73.2129C116.934 73.4404 116.973 73.6869 116.954 73.9322C116.96 74.2442 116.887 74.5527 116.741 74.8302C116.596 75.1077 116.383 75.3456 116.121 75.5226C115.565 75.9301 114.659 76.1338 113.401 76.1338C112.688 76.1363 111.977 76.0729 111.277 75.9445C109.982 75.6931 108.759 75.1648 107.696 74.3974L106.73 76.81C107.611 77.4368 108.595 77.9124 109.638 78.2164C110.859 78.5524 112.122 78.7181 113.39 78.7086C114.589 78.7351 115.782 78.5273 116.899 78.0974C117.809 77.7363 118.601 77.1376 119.188 76.3664C119.733 75.6073 120.017 74.6979 119.999 73.77C120.026 73.2413 119.938 72.713 119.74 72.2205C119.542 71.728 119.239 71.2825 118.852 70.9139C117.847 70.0802 116.623 69.5404 115.321 69.356Z" fill="#161616"/>
<path d="M225.748 61.9658L219.933 74.7912L214.124 61.9658H211.426V78.4641H214.217V68.1324L218.99 78.4641H220.827L225.627 68.0837V78.4641H228.419V61.9658H225.748Z" fill="#161616"/>
<path d="M204.791 71.6717C204.791 73.1358 204.449 74.2429 203.765 74.993C203.379 75.3863 202.909 75.6911 202.39 75.8856C201.87 76.0801 201.313 76.1595 200.758 76.1181C199.356 76.1181 198.33 75.7431 197.679 74.993C197.039 74.2465 196.725 73.1376 196.725 71.6717V61.9351H193.641V71.6717C193.641 73.9833 194.222 75.7305 195.384 76.9133C196.546 78.0961 198.338 78.6821 200.758 78.6713C203.097 78.6713 204.855 78.0853 206.032 76.9133C207.209 75.7413 207.805 73.9941 207.82 71.6717V61.9351H204.791V71.6717Z" fill="#161616"/>
<path d="M130.677 69.356L128.007 68.8151C127.282 68.7152 126.594 68.4401 126.004 68.0145C125.816 67.8378 125.668 67.6228 125.573 67.3846C125.478 67.1464 125.437 66.8906 125.453 66.6352C125.441 66.2896 125.52 65.947 125.683 65.6401C125.845 65.3332 126.085 65.0724 126.38 64.8826C127.175 64.404 128.101 64.1756 129.033 64.228C129.958 64.2161 130.878 64.3587 131.753 64.65C132.576 64.9174 133.339 65.338 133.999 65.8887L134.948 63.6384C134.215 62.9864 133.345 62.5007 132.399 62.2158C131.334 61.8554 130.215 61.6725 129.089 61.6749C127.887 61.6495 126.693 61.8648 125.58 62.3077C124.647 62.6782 123.838 63.2941 123.24 64.0874C122.673 64.8777 122.381 65.8261 122.407 66.792C122.38 67.3353 122.469 67.8781 122.666 68.3864C122.864 68.8947 123.166 69.3574 123.555 69.7455C124.532 70.5794 125.733 71.1218 127.014 71.3088L129.712 71.8497C130.447 71.9501 131.15 72.2147 131.764 72.6232C131.955 72.7834 132.104 72.9855 132.2 73.2129C132.296 73.4404 132.336 73.6869 132.316 73.9322C132.321 74.2446 132.247 74.5532 132.101 74.8307C131.954 75.1082 131.74 75.3459 131.477 75.5226C130.922 75.9301 130.015 76.1338 128.758 76.1338C128.045 76.1363 127.334 76.0729 126.633 75.9445C125.987 75.8103 125.355 75.6146 124.747 75.3603C124.153 75.0919 123.586 74.7695 123.053 74.3974L122.109 76.81C122.992 77.4379 123.977 77.9135 125.022 78.2164C126.241 78.5524 127.502 78.7181 128.769 78.7086C129.968 78.7351 131.161 78.5273 132.277 78.0974C133.188 77.7378 133.981 77.1388 134.567 76.3664C135.112 75.6073 135.396 74.6979 135.378 73.77C135.405 73.2418 135.317 72.7141 135.12 72.2218C134.923 71.7294 134.622 71.2836 134.236 70.9139C133.223 70.0764 131.99 69.5363 130.677 69.356Z" fill="#161616"/>
<path d="M144.832 78.4641H147.911V71.3725H155.381V69.0087H147.911V64.3297H155.927V61.9658H144.832V78.4641Z" fill="#161616"/>
<path d="M170 62.7798C168.674 62.087 167.194 61.7246 165.691 61.7246C164.188 61.7246 162.709 62.087 161.382 62.7798C160.176 63.4624 159.205 64.481 158.591 65.7062C157.954 67.1216 157.625 68.6516 157.625 70.1986C157.625 71.7455 157.954 73.2755 158.591 74.691C159.2 75.9148 160.158 76.9389 161.349 77.639C162.675 78.3318 164.155 78.6942 165.658 78.6942C167.161 78.6942 168.641 78.3318 169.967 77.639C171.169 76.9421 172.139 75.918 172.759 74.691C173.454 73.2851 173.797 71.7364 173.757 70.1742C173.797 68.6277 173.454 67.0947 172.759 65.7062C172.152 64.4866 171.192 63.4689 170 62.7798ZM169.294 74.5503C168.863 75.0729 168.312 75.4877 167.685 75.7604C167.059 76.0332 166.375 76.1561 165.691 76.119C165.002 76.1641 164.312 76.045 163.679 75.7718C163.047 75.4986 162.492 75.0796 162.061 74.5503C161.248 73.5045 160.843 72.0621 160.847 70.2229C160.851 68.3838 161.255 66.9413 162.061 65.8955C162.523 65.4074 163.082 65.018 163.704 64.7517C164.327 64.4854 164.998 64.348 165.677 64.348C166.356 64.348 167.028 64.4854 167.65 64.7517C168.273 65.018 168.832 65.4074 169.294 65.8955C170.14 66.9233 170.561 68.3657 170.557 70.2229C170.554 72.0801 170.132 73.5226 169.294 74.5503Z" fill="black"/>
<path d="M252 0H0V53.6653H229.154L252 78.3152V53.6653V0Z" fill=""/>

<path d="M99.4218 30.5291H106.092V35.5165C105.446 35.6733 104.807 35.8086 104.172 35.9059C103.161 36.0806 102.137 36.171 101.11 36.1764C98.0057 36.1764 95.7364 35.3993 94.3019 33.845C92.8675 32.2907 92.1502 29.9918 92.1502 26.9482C92.1502 23.8721 92.9281 21.5407 94.484 19.954C96.0398 18.3673 98.4158 17.5613 101.612 17.5361C102.608 17.5267 103.603 17.6009 104.586 17.7579C105.468 17.9088 106.327 18.1649 107.146 18.5206C108.094 18.9011 108.996 19.3817 109.838 19.954L112.475 13.636C111.069 12.5735 109.471 11.7824 107.764 11.3046C105.745 10.7381 103.651 10.4665 101.551 10.4986C97.7409 10.4986 94.4803 11.1712 91.7695 12.5163C89.1489 13.777 86.9694 15.7727 85.5076 18.2501C84.0211 20.9127 83.2806 23.9139 83.3615 26.9482C83.2917 29.8859 83.9666 32.7946 85.3255 35.4137C86.655 37.8272 88.6921 39.7944 91.1737 41.061C93.7484 42.4097 96.917 43.0822 100.68 43.0786C102.86 43.0791 105.035 42.8689 107.173 42.4511C109.193 42.0778 111.157 41.46 113.021 40.612V24.7953H99.4494L99.4218 30.5291Z" fill="black"/>
<path d="M67.4623 29.2101C67.4623 31.5108 66.975 33.258 66.0003 34.4516C65.0256 35.6453 63.5029 36.2277 61.4321 36.1988C59.3577 36.1988 57.8331 35.6164 56.8584 34.4516C55.8837 33.2869 55.3964 31.5397 55.3964 29.2101V10.9917H46.9883V29.1452C46.9883 33.7755 48.191 37.2554 50.5965 39.585C53.0019 41.9146 56.6138 43.0794 61.4321 43.0794C66.243 43.0794 69.8384 41.9146 72.2181 39.585C74.5978 37.2554 75.7858 33.7755 75.7821 29.1452V10.9917H67.4623V29.2101Z" fill="black"/>
<path d="M27.7702 10.9917H19.3125V42.5872H41.5741V35.7282H27.7702V10.9917Z" fill="black"/>
<path d="M132.333 10.9917L117.238 42.5872H125.713L128.543 36.1772H143.053L145.916 42.5872H154.369L139.196 10.9917H132.333ZM135.715 19.5059H135.947L140.427 29.9025H131.268L135.715 19.5059Z" fill="black"/>
<path d="M226.439 18.2041C225.178 15.8058 223.222 13.8262 220.818 12.5135C218.131 11.187 215.164 10.4961 212.156 10.4961C209.147 10.4961 206.181 11.187 203.494 12.5135C201.089 13.8262 199.133 15.8058 197.872 18.2041C196.509 20.8547 195.835 23.7941 195.908 26.7615C195.841 29.7301 196.515 32.6696 197.872 35.3244C199.16 37.7182 201.113 39.706 203.505 41.0582C206.192 42.3847 209.158 43.0756 212.167 43.0756C215.175 43.0756 218.142 42.3847 220.829 41.0582C223.23 39.7215 225.183 37.7295 226.45 35.3244C227.837 32.6787 228.527 29.7353 228.459 26.7615C228.531 23.7879 227.836 20.8446 226.439 18.2041ZM217.755 33.707C216.505 35.3514 214.631 36.1736 212.134 36.1736C209.636 36.1736 207.777 35.3514 206.556 33.707C205.338 32.0337 204.73 29.7186 204.73 26.7615C204.73 23.8044 205.338 21.5055 206.556 19.8647C207.777 18.2203 209.636 17.3981 212.134 17.3981C214.631 17.3981 216.505 18.2203 217.755 19.8647C219.002 21.4875 219.631 23.8081 219.631 26.7615C219.631 29.715 219.002 32.0355 217.755 33.707Z" fill="black"/>
<path d="M180.298 29.2317L165.308 10.9917H159.09V42.5872H166.996V24.358L181.898 42.5872H188.115V10.9917H180.298V29.2317Z" fill="black"/>
<script xmlns=""/><script xmlns=""/></svg>